# xmcd
#
# Track frame offsets: 
#        170
#        14672
#        25747
#        32912
#        45627
#        52240
#        64807
#        77390
#        90930
#        104350
#        112997
#        122165
#
# Disc length: 1857 seconds
#
# Revision: 0
# Processed by: cddbd v1.4PL0 Copyright (c) Steve Scherf et al.
# Submitted via: ExactAudioCopy v0.90a11
#
DISCID=95073f0c
DTITLE=Various Artist - Christmas Time Back Home
DYEAR=1900
DGENRE=
TTITLE0=Christmas Time Back Home
TTITLE1=Christmas Time's A-Coming
TTITLE2=Slowly Fall The Snowflakes
TTITLE3=Blue Christmas
TTITLE4=Jingle Bells
TTITLE5=If You Are To Sin Inclined
TTITLE6=Christmas Is Not Far Away
TTITLE7=It's Christmas Time
TTITLE8=Home For Christmas
TTITLE9=Silent Night
TTITLE10=Christmas Is Near
TTITLE11=Beautiful Star of Bethlehem
EXTD=
EXTT0=
EXTT1=
EXTT2=
EXTT3=
EXTT4=
EXTT5=
EXTT6=
EXTT7=
EXTT8=
EXTT9=
EXTT10=
EXTT11=
PLAYORDER=
